<svg xmlns="http://www.w3.org/2000/svg" width="20" height="20" viewBox="0 0 20 20">
  <g id="Grupo_210" data-name="Grupo 210" transform="translate(-325.604 -385.75)">
    <path id="arrow-right-circle-outline" d="M345.6,395.75a10,10,0,1,1-10-10,10,10,0,0,1,10,10m-2,0a8,8,0,1,0-8,8A8,8,0,0,0,343.6,395.75Z" fill="#fff"/>
    <path id="eye-circle-outline" d="M335.6,394.642a1.107,1.107,0,1,1-1.106,1.107,1.107,1.107,0,0,1,1.106-1.107m0-3.318a7.16,7.16,0,0,1,6.637,4.425,7.19,7.19,0,0,1-13.274,0,7.159,7.159,0,0,1,6.637-4.425m0,1.659a2.766,2.766,0,1,0,2.765,2.766,2.765,2.765,0,0,0-2.765-2.766" fill="#fff"/>
  </g>
</svg>
